<?xml version="1.0" standalone="no"?>
<!DOCTYPE svg PUBLIC "-//W3C//DTD SVG 20010904//EN"
 "http://www.w3.org/TR/2001/REC-SVG-20010904/DTD/svg10.dtd">
<svg version="1.0" xmlns="http://www.w3.org/2000/svg"
 width="64.000000pt" height="64.000000pt" viewBox="0 0 64.000000 64.000000"
 preserveAspectRatio="xMidYMid meet">

<g transform="translate(0.000000,64.000000) scale(0.100000,-0.100000)"
fill="#000000" stroke="none">
<path d="M260 630 c0 -5 -7 -10 -15 -10 -9 0 -27 -11 -40 -25 -14 -13 -25 -31
-25 -40 0 -8 -4 -15 -10 -15 -5 0 -10 -9 -10 -20 0 -11 -4 -20 -10 -20 -5 0
-10 -18 -10 -40 0 -22 5 -40 10 -40 6 0 10 -7 10 -16 0 -9 10 -25 21 -35 l21
-18 -41 -40 c-22 -22 -41 -45 -41 -51 0 -17 26 -40 44 -40 12 0 16 -10 16 -40
0 -22 5 -40 10 -40 6 0 10 -7 10 -16 0 -18 23 -44 40 -44 17 0 40 26 40 44 0
12 10 16 40 16 30 0 40 -4 40 -16 0 -18 23 -44 40 -44 17 0 40 26 40 44 0 9 5
16 10 16 6 0 10 18 10 40 0 30 4 40 16 40 18 0 44 23 44 40 0 17 -93 106 -98
92 -2 -7 -12 -12 -23 -12 -10 0 -19 -4 -19 -10 0 -6 -27 -10 -60 -10 -33 0
-60 4 -60 10 0 6 -7 10 -16 10 -8 0 -22 7 -31 15 -13 14 -11 18 16 44 17 16
31 36 31 45 0 9 5 16 10 16 6 0 10 -4 10 -10 0 -5 9 -10 20 -10 11 0 20 -4 20
-9 0 -5 9 -13 20 -16 11 -3 20 -15 20 -26 0 -10 5 -19 10 -19 6 0 10 9 10 20
0 26 6 25 36 -5 14 -14 27 -25 30 -25 12 0 34 29 34 44 0 9 5 16 10 16 6 0 10
18 10 40 0 22 -4 40 -10 40 -5 0 -10 9 -10 20 0 11 -4 20 -10 20 -5 0 -10 7
-10 15 0 20 -45 65 -65 65 -8 0 -15 5 -15 10 0 6 -27 10 -60 10 -33 0 -60 -4
-60 -10z m120 -20 c0 -5 7 -10 16 -10 8 0 22 -6 30 -14 8 -8 14 -22 14 -30 0
-9 5 -16 10 -16 6 0 10 -9 10 -20 0 -11 5 -20 10 -20 6 0 10 -18 10 -40 0 -22
-4 -40 -10 -40 -5 0 -10 -9 -10 -20 0 -27 -14 -25 -44 5 -14 14 -36 25 -50 25
-13 0 -31 7 -40 15 -8 8 -21 15 -29 15 -9 0 -17 6 -19 12 -5 15 -38 -13 -38
-32 0 -11 -44 -60 -55 -60 -3 0 -5 9 -5 20 0 11 -4 20 -10 20 -5 0 -10 18 -10
40 0 22 5 40 10 40 6 0 10 9 10 20 0 11 5 20 10 20 6 0 10 7 10 16 0 20 24 44
44 44 9 0 16 5 16 10 0 6 27 10 60 10 33 0 60 -4 60 -10z m-140 -300 c0 -6 33
-10 80 -10 47 0 80 4 80 10 0 6 9 10 20 10 11 0 20 -7 20 -15 0 -12 -20 -15
-120 -15 -100 0 -120 3 -120 15 0 8 9 15 20 15 11 0 20 -4 20 -10z m-60 -40
c0 -23 -4 -30 -20 -30 -23 0 -27 23 -7 45 19 22 27 18 27 -15z m306 16 c21
-21 17 -46 -6 -46 -16 0 -20 7 -20 30 0 34 5 37 26 16z m-46 -36 c0 -6 -47
-10 -120 -10 -73 0 -120 4 -120 10 0 6 47 10 120 10 73 0 120 -4 120 -10z m0
-50 c0 -6 -47 -10 -120 -10 -73 0 -120 4 -120 10 0 6 47 10 120 10 73 0 120
-4 120 -10z m-180 -80 c0 -13 -7 -20 -20 -20 -13 0 -20 7 -20 20 0 13 7 20 20
20 13 0 20 -7 20 -20z m160 0 c0 -13 -7 -20 -20 -20 -13 0 -20 7 -20 20 0 13
7 20 20 20 13 0 20 -7 20 -20z"/>
<path d="M260 390 c0 -11 5 -20 10 -20 6 0 10 9 10 20 0 11 -4 20 -10 20 -5 0
-10 -9 -10 -20z"/>
</g>
</svg>
